<?xml version="1.0" encoding="UTF-8" standalone="no"?>
<!-- Created with Inkscape (http://www.inkscape.org/) -->

<svg
   width="124.77958mm"
   height="100.87447mm"
   viewBox="0 0 124.77958 100.87447"
   version="1.1"
   id="svg1"
   xml:space="preserve"
   xmlns="http://www.w3.org/2000/svg"
   xmlns:svg="http://www.w3.org/2000/svg"><defs
     id="defs1" /><g
     id="layer1"
     transform="translate(-43.260401,-87.573327)"><path
       style="fill:currentColor;stroke:#000000;stroke-width:0.192109;stroke-linecap:round;stroke-linejoin:round;stroke-miterlimit:12.5;stroke-dasharray:none;stroke-dashoffset:0;stroke-opacity:1;paint-order:markers stroke fill"
       d="m 58.628977,188.18261 c -3.87266,-0.60875 -7.57645,-2.27296 -10.09186,-4.53453 -2.04446,-1.83814 -3.65365,-4.69067 -4.53615,-8.04097 -0.64279,-2.44026 -0.80388,-6.50831 -0.48581,-12.26812 0.23314,-4.22188 0.55861,-6.32212 1.67133,-10.78492 0.98441,-3.94823 1.50304,-5.57028 3.00979,-9.41332 3.38146,-8.62459 8.23491,-16.43711 13.4532,-21.6554 2.98757,-2.98757 5.65308,-4.95533 9.19142,-6.78538 1.78854,-0.92504 2.95661,-1.65154 3.17677,-1.97584 0.30384,-0.44756 0.35607,-1.03625 0.41016,-4.62256 0.0341,-2.26032 0.013,-4.30495 -0.0469,-4.54362 -0.0664,-0.26442 -0.50334,-0.65741 -1.11858,-1.00599 -1.20505,-0.68274 -2.99456,-2.5109 -3.6226,-3.700818 -0.40067,-0.75916 -0.45226,-1.11679 -0.45628,-3.16332 -0.004,-2.22285 0.0186,-2.35432 0.62505,-3.58819 0.78815,-1.6034 2.05954,-2.87126 3.67913,-3.6689 1.17047,-0.57646 1.38703,-0.61728 3.27504,-0.61728 1.83653,0 2.12441,0.0504 3.14324,0.55071 1.52416,0.74841 3.37551,2.52301 4.17911,4.00587 0.62,1.14406 0.6539,1.30639 0.65329,3.12777 -5.3e-4,1.67431 -0.0653,2.05681 -0.50357,2.97769 -1.02027,2.143478 -2.31264,3.413048 -4.22305,4.148548 -1.6387,0.63089 -1.61313,0.55425 -1.59958,4.79519 0.01,3.09118 0.0632,3.79689 0.30527,4.03894 0.263,0.263 0.56942,0.2244 2.96572,-0.37356 7.75138,-1.93423 14.14534,-2.78368 22.184613,-2.94723 8.43901,-0.17168 16.99258,0.74067 24.92925,2.65906 1.30332,0.31502 2.55466,0.54611 2.78077,0.51352 0.74226,-0.10698 0.89514,-0.80706 0.89817,-4.11289 0.002,-1.7012 -0.0852,-3.34561 -0.19279,-3.65424 -0.15091,-0.43292 -0.4113,-0.63776 -1.13947,-0.89638 -1.96204,-0.69685 -4.03669,-2.951068 -4.61414,-5.013508 -0.15128,-0.54034 -0.21435,-1.55425 -0.16527,-2.6571 0.0678,-1.52327 0.16221,-1.93628 0.64754,-2.83209 0.76113,-1.40487 2.22834,-2.83859 3.74337,-3.65792 1.20666,-0.65255 1.4018,-0.81646 3.4566,-0.81646 2.00482,0 2.08728,0.17718 3.26585,0.76801 1.39457,0.69907 2.16904,1.34921 3.17114,2.66202 1.10932,1.45329 1.28884,2.05116 1.3013,4.3337 0.0105,1.91888 -0.0269,2.12591 -0.59108,3.27188 -0.81713,1.659808 -1.61993,2.530618 -3.21302,3.485198 -1.73609,1.04026 -1.80025,1.22957 -1.81418,5.35298 -0.0167,4.93835 0.21985,5.5361 2.60888,6.59264 1.69073,0.74772 5.07322,2.7714 6.69209,4.00374 4.04018,3.07552 8.1757,7.86446 11.88502,13.76285 4.11588,6.54487 8.11538,17.39631 9.52331,25.83861 0.96901,5.81038 1.18124,12.31594 0.52019,15.94502 -1.26461,6.9426 -4.63259,11.0681 -10.98903,13.46065 -2.99151,1.126 -7.91803,1.52553 -11.42848,0.92683 -5.07715,-0.86591 -8.58939,-2.76453 -12.03549,-6.50606 -1.73481,-1.88353 -2.51556,-3.05009 -5.33298,-7.9682 -2.96332,-5.1728 -3.48526,-5.91879 -5.65772,-8.08647 -2.11843,-2.11376 -3.97267,-3.40433 -6.38627,-4.44489 -3.31906,-1.43092 -3.9591,-1.54646 -9.11012,-1.64447 -5.26431,-0.10017 -6.52156,0.0339 -9.427303,1.00543 -3.3883,1.13284 -5.71036,2.49421 -8.00844,4.69517 -1.66293,1.59266 -3.77616,4.38359 -5.10297,6.73949 -3.69748,6.56529 -4.98238,8.43403 -7.33773,10.67193 -2.79619,2.65678 -6.36185,4.44324 -10.73558,5.37875 -1.72582,0.36914 -5.79739,0.51723 -7.38014,0.26843 z m 7.41592,-4.51676 c 3.07502,-0.74348 5.86837,-2.31607 8.28804,-4.66597 1.39576,-1.35552 3.10536,-3.91016 5.03456,-7.52311 2.57244,-4.81758 4.43886,-7.40035 7.02092,-9.71563 5.83143,-5.22893 12.73916,-7.40166 21.629123,-6.80313 7.08535,0.47704 11.8571,2.42902 16.45216,6.73011 2.85998,2.67701 4.24431,4.63401 7.3274,10.35863 1.97053,3.65883 2.93326,5.09225 4.63526,6.90149 3.62567,3.85411 7.86167,5.44906 13.6243,5.12985 3.13574,-0.17369 4.68236,-0.52791 6.74088,-1.54383 3.32158,-1.63927 5.27051,-3.98672 6.22963,-7.50348 1.04571,-3.83422 0.50075,-16.21221 -0.8191,-18.60484 -0.92338,-1.6739 -2.09659,-1.7967 -18.51375,-1.9378 -7.13656,-0.0613 -12.94554,-0.1932 -13.81031,-0.31347 -9.13084,-1.26999 -15.8577,-7.69191 -15.84439,-15.12615 0.006,-3.4415 0.88067,-5.93179 2.98726,-8.50667 1.93054,-2.35969 5.1709,-4.16975 8.59559,-4.80148 0.71492,-0.13187 4.91174,-0.26845 10.52497,-0.34253 9.98249,-0.13173 9.97099,-0.13048 9.97099,-1.08799 0,-0.55044 -1.5924,-2.0322 -3.61416,-3.36303 -5.44488,-3.5841 -14.50177,-6.42099 -25.20214,-7.89406 -2.85996,-0.39372 -3.93966,-0.43709 -11.04624,-0.44375 -8.241813,-0.008 -9.400333,0.0704 -15.560813,1.04933 -8.4942,1.34978 -15.1744,3.41954 -20.55562,6.36886 -3.33302,1.82675 -5.66721,3.66461 -5.66721,4.46217 0,0.75408 0.30149,0.781 10.16308,0.90737 10.23246,0.13112 10.45116,0.15113 13.46629,1.23158 3.19371,1.14443 6.60706,4.50984 7.85425,7.74392 2.65737,6.8908 -0.75697,14.18985 -8.33452,17.81725 -4.54335,2.17491 -6.05571,2.35636 -19.97931,2.39714 -12.94406,0.0379 -18.31606,0.20043 -18.53952,0.56091 -0.2414,0.3894 -0.52016,1.71009 -1.01372,4.80271 -0.34479,2.16041 -0.41412,3.41148 -0.41522,7.49224 -0.002,5.6338 0.27926,7.50641 1.5088,10.06273 1.68878,3.51113 5.53012,6.13606 9.43056,6.44425 2.3291,0.18404 6.09161,0.0404 7.43196,-0.28362 z m 13.98815,-33.7105 c 3.25973,-0.27829 6.49702,-1.55118 8.69746,-3.41982 2.92026,-2.47991 3.93935,-4.72431 3.7198,-8.19227 -0.10541,-1.66489 -0.21151,-2.10896 -0.78179,-3.27214 -0.8938,-1.82302 -2.40528,-3.34114 -4.18717,-4.20557 -2.61071,-1.26651 -3.16211,-1.32221 -13.94497,-1.40864 -10.08188,-0.0808 -11.70806,0.007 -13.08187,0.70806 -0.39604,0.20205 -0.93725,0.65401 -1.20269,1.00436 -1.56216,2.06188 -4.67625,7.91775 -6.23682,11.728 -1.42722,3.48467 -2.38978,6.32849 -2.26989,6.70624 0.12244,0.38577 0.48088,0.5066 1.8164,0.61228 1.69561,0.13418 25.49166,-0.0915 27.47154,-0.2605 z m 79.793583,-0.0149 c 0.49873,-0.22925 0.54056,-0.32303 0.45875,-1.02855 -0.10121,-0.87295 -1.70907,-5.26474 -2.88383,-7.87707 -1.18904,-2.64409 -2.76309,-5.45253 -4.55931,-8.13481 -2.09986,-3.13568 -2.32722,-3.27472 -5.72014,-3.49792 -1.34446,-0.0884 -6.46435,-0.0885 -11.37753,-3e-5 -9.8038,0.17645 -9.66893,0.16056 -12.41595,1.46254 -1.81424,0.85987 -3.25699,2.30878 -4.20063,4.21856 -0.6971,1.41082 -0.72062,1.52517 -0.70233,3.41389 0.0374,3.85597 1.12517,6.12846 3.96735,8.28796 1.93115,1.46729 3.06536,1.99943 6.05143,2.83911 1.30723,0.36759 2.13541,0.41731 8.93305,0.5363 11.17464,0.1956 21.77095,0.0918 22.44914,-0.21998 z M 78.646437,99.137682 c 1.52261,-0.63603 2.34939,-1.83238 2.34294,-3.3902 -0.005,-1.28107 -0.48529,-2.33122 -1.51901,-3.32342 l -0.80059,-0.76843 -0.718369,-0.27168 c -1.682178,-0.63619 -2.894361,0.27368 -3.576971,0.93574 -2.14187,2.07597 -1.87609,5.23916 0.56773,6.75696 0.72644,0.45118 2.69273,0.48357 3.70427,0.061 z m 57.807533,-0.2573 c 0.9211,-0.72158 1.53939,-1.95777 1.5959,-3.12649 0.0588,-1.21676 -0.29721,-2.76992 -1.33971,-3.40014 -3.52761,-2.13253 -4.92771,-0.49085 -6.26056,1.60604 -0.88143,1.3867 0.10439,3.58846 1.24733,4.76894 0.57712,0.59608 1.5571,0.68328 2.38644,0.7073 0.81128,0.0235 1.73169,-0.0551 2.3706,-0.55565 z"
       id="path26" /></g></svg>
